<?xml version="1.0" encoding="UTF-8" standalone="no"?>
<!-- Created with Inkscape (http://www.inkscape.org/) -->

<svg
   xmlns:dc="http://purl.org/dc/elements/1.1/"
   xmlns:cc="http://creativecommons.org/ns#"
   xmlns:rdf="http://www.w3.org/1999/02/22-rdf-syntax-ns#"
   xmlns:svg="http://www.w3.org/2000/svg"
   xmlns="http://www.w3.org/2000/svg"
   xmlns:sodipodi="http://sodipodi.sourceforge.net/DTD/sodipodi-0.dtd"
   xmlns:inkscape="http://www.inkscape.org/namespaces/inkscape"
   width="1220mm"
   height="610mm"
   viewBox="0 0 4322.8346 2161.4173"
   id="svg8254"
   version="1.1"
   inkscape:version="0.92.1 unknown"
   sodipodi:docname="acs2.svg">
  <defs
     id="defs8256" />
  <sodipodi:namedview
     id="base"
     pagecolor="#ffffff"
     bordercolor="#666666"
     borderopacity="1.0"
     inkscape:pageopacity="0.0"
     inkscape:pageshadow="2"
     inkscape:zoom="0.67932159"
     inkscape:cx="162.76305"
     inkscape:cy="1799.7811"
     inkscape:document-units="mm"
     inkscape:current-layer="layer1"
     showgrid="false"
     inkscape:window-width="1600"
     inkscape:window-height="847"
     inkscape:window-x="0"
     inkscape:window-y="0"
     inkscape:window-maximized="1"
     inkscape:measure-start="1608.82,1174.28"
     inkscape:measure-end="1610.88,1059.21" />
  <metadata
     id="metadata8259">
    <rdf:RDF>
      <cc:Work
         rdf:about="">
        <dc:format>image/svg+xml</dc:format>
        <dc:type
           rdf:resource="http://purl.org/dc/dcmitype/StillImage" />
        <dc:title />
      </cc:Work>
    </rdf:RDF>
  </metadata>
  <g
     inkscape:label="Layer 1"
     inkscape:groupmode="layer"
     id="layer1"
     transform="translate(0,1109.0551)">
    <path
       style="fill:none;stroke:#000000;stroke-width:1.77165365"
       d="m 73.60163,-202.85429 h 30.1925 v 14.17323 h 30.196 v -14.17323 h 30.1961 v 14.17323 h 30.1961 v -14.17323 h 30.19248 v 14.17323 h 30.1961 v -14.17323 h 30.1961 v 14.17323 h 30.196 v -14.17323 h 30.1926 v 14.17323 h 30.196 v -14.17323 h 30.1961 v 14.17323 h 30.1961 v -14.17323 h 30.1923 v 14.17323 h 30.1962 v -14.17323 h 30.196 v 14.17323 h 30.196 v -14.17323 h 30.1926 v 14.17323 h 30.196 v -14.17323 h 30.1961 v 14.17323 h 30.1961 v -14.17323 h 30.1925 v 14.17323 h 30.1961 v -14.17323 h 28.3464 v -42.51968 h 14.1732 v -29.26489 h -14.1732 v -29.26524 h 14.1732 v -29.26595 h -14.1732 v -29.26417 h 14.1732 v -29.26417 h -14.1732 v -29.26772 h 14.1732 v -29.26417 h -14.1732 v -29.26418 h 14.1732 v -29.26417 h -14.1732 v -29.26771 h 14.1732 v -29.26418 h -14.1732 v -29.26418 h 14.1732 v -29.26417 h -14.1732 v -29.26772 h 14.1732 v -29.26418 h -14.1732 v -29.26416 h 14.1732 v -29.26418 h -14.1732 v -29.26772 h 14.1732 v -29.26418 h -14.1732 v -29.26417 h 14.1732 v -29.26418 h -14.1732 v -29.26771 h 14.1732 v -29.26417 h -14.1732 v -29.26418 h 14.1732 v -29.26418 h -14.1732 v -29.2677 h 14.1732 v -29.2642 h -14.1732 v -42.5196 h -28.3464 v -14.1733 h -30.1961 v 14.1733 h -30.1925 v -14.1733 h -30.1961 v 14.1733 h -30.1961 v -14.1733 h -30.196 v 14.1733 h -30.1926 v -14.1733 h -30.196 v 14.1733 h -30.196 v -14.1733 h -30.1962 v 14.1733 h -30.1923 v -14.1733 h -30.1961 v 14.1733 h -30.1961 v -14.1733 h -30.196 v 14.1733 h -30.1926 v -14.1733 h -30.196 v 14.1733 h -30.1961 v -14.1733 h -30.1961 v 14.1733 h -30.19248 v -14.1733 h -30.1961 v 14.1733 h -30.1961 v -14.1733 h -30.196 v 14.1733 h -30.1925 v -14.1733 h -30.1961 v 14.1733 h -28.3465 v 42.5196 H 0.88583 v 29.2642 h 14.1732 v 29.2677 H 0.88583 v 29.26418 h 14.1732 v 29.26418 H 0.88583 v 29.26417 h 14.1732 v 29.26771 H 0.88583 v 29.26418 h 14.1732 v 29.26417 H 0.88583 v 29.26418 h 14.1732 v 29.26772 H 0.88583 v 29.26418 h 14.1732 v 29.26416 H 0.88583 v 29.26418 h 14.1732 v 29.26772 H 0.88583 v 29.26417 h 14.1732 v 29.26418 H 0.88583 v 29.26418 h 14.1732 v 29.26771 H 0.88583 v 29.26417 h 14.1732 v 29.26418 H 0.88583 v 29.26417 h 14.1732 v 29.26772 H 0.88583 v 29.26417 h 14.1732 v 29.26417 H 0.88583 v 29.26595 h 14.1732 v 29.26489 H 0.88583 v 29.26524 h 14.1732 v 42.51968 h 28.3465 v 14.17323 h 30.1961 z"
       id="path5123"
       inkscape:connector-curvature="0" />
    <rect
       style="fill:none;fill-opacity:1;stroke:#00fd00;stroke-width:1.45000911;stroke-miterlimit:4;stroke-dasharray:none;stroke-dashoffset:0;stroke-opacity:1"
       id="rect4482"
       width="494.61298"
       height="264.298"
       x="256.44983"
       y="-480.27728" />
    <rect
       style="fill:none;fill-opacity:1;stroke:#00fd00;stroke-width:3.5433073;stroke-miterlimit:4;stroke-dasharray:none;stroke-dashoffset:0;stroke-opacity:1"
       id="rect4484"
       width="424.9021"
       height="247.73676"
       x="320.71301"
       y="-797.98993" />
    <rect
       y="-1068.6761"
       x="382.97668"
       height="212.34317"
       width="371.79196"
       id="rect4486"
       style="fill:none;fill-opacity:1;stroke:#00fd00;stroke-width:3.5433073;stroke-miterlimit:4;stroke-dasharray:none;stroke-dashoffset:0;stroke-opacity:1" />
    <rect
       style="fill:none;fill-opacity:1;stroke:#00fd00;stroke-width:3.5433073;stroke-miterlimit:4;stroke-dasharray:none;stroke-dashoffset:0;stroke-opacity:1"
       id="rect4488"
       width="230.15099"
       height="141.5683"
       x="810.59863"
       y="80.684067"
       transform="rotate(-90)" />
    <rect
       y="-751.1142"
       x="83.361816"
       height="68.023849"
       width="160.03168"
       id="rect4490"
       style="fill:none;fill-opacity:1;stroke:#00fd00;stroke-width:2.84229541;stroke-miterlimit:4;stroke-dasharray:none;stroke-dashoffset:0;stroke-opacity:1" />
    <rect
       style="fill:none;fill-opacity:1;stroke:#00fd00;stroke-width:2.84229541;stroke-miterlimit:4;stroke-dasharray:none;stroke-dashoffset:0;stroke-opacity:1"
       id="rect4492"
       width="160.03168"
       height="68.023849"
       x="83.361816"
       y="-628.42743" />
  </g>
</svg>
