<?xml version="1.0" encoding="UTF-8" standalone="no"?>
<!-- Created with Inkscape (http://www.inkscape.org/) -->

<svg
   xmlns:dc="http://purl.org/dc/elements/1.1/"
   xmlns:cc="http://creativecommons.org/ns#"
   xmlns:rdf="http://www.w3.org/1999/02/22-rdf-syntax-ns#"
   xmlns:svg="http://www.w3.org/2000/svg"
   xmlns="http://www.w3.org/2000/svg"
   xmlns:sodipodi="http://sodipodi.sourceforge.net/DTD/sodipodi-0.dtd"
   xmlns:inkscape="http://www.inkscape.org/namespaces/inkscape"
   width="1220mm"
   height="610mm"
   viewBox="0 0 4322.8346 2161.4173"
   id="svg8254"
   version="1.1"
   inkscape:version="0.92.1 unknown"
   sodipodi:docname="leftside.svg">
  <defs
     id="defs8256" />
  <sodipodi:namedview
     id="base"
     pagecolor="#ffffff"
     bordercolor="#666666"
     borderopacity="1.0"
     inkscape:pageopacity="0.0"
     inkscape:pageshadow="2"
     inkscape:zoom="0.57350648"
     inkscape:cx="603.34322"
     inkscape:cy="2162.1371"
     inkscape:document-units="mm"
     inkscape:current-layer="layer1"
     showgrid="false"
     inkscape:window-width="1600"
     inkscape:window-height="847"
     inkscape:window-x="0"
     inkscape:window-y="0"
     inkscape:window-maximized="1"
     inkscape:measure-start="1608.82,1174.28"
     inkscape:measure-end="1610.88,1059.21" />
  <metadata
     id="metadata8259">
    <rdf:RDF>
      <cc:Work
         rdf:about="">
        <dc:format>image/svg+xml</dc:format>
        <dc:type
           rdf:resource="http://purl.org/dc/dcmitype/StillImage" />
        <dc:title />
      </cc:Work>
    </rdf:RDF>
  </metadata>
  <g
     inkscape:label="Layer 1"
     inkscape:groupmode="layer"
     id="layer1"
     transform="translate(0,1109.0551)">
    <path
       style="fill:none;stroke:#000000;stroke-width:1.77165365"
       d="m 57.578827,-876.08264 h 29.264096 v 14.17322 h 29.267797 v -14.17322 h 29.2641 v 14.17322 h 29.2642 v -14.17322 h 29.26427 v 14.17322 h 29.2677 v -14.17322 h 29.2642 v 14.17322 h 29.2641 v -14.17322 h 29.2642 v 14.17322 h 29.2677 v -14.17322 h 29.2642 v 14.17322 h 29.2642 v -14.17322 h 29.2642 v 14.17322 h 29.2677 v -14.17322 h 29.2642 v 14.17322 h 29.2641 v -14.17322 h 29.2642 v 14.17322 h 29.2677 v -14.17322 h 29.2642 v 14.17322 h 29.2642 v -14.17322 h 29.2642 v 14.17322 h 29.2677 v -14.17322 h 29.2641 v 14.17322 h 29.2642 v -14.17322 h 29.2642 v 14.17322 h 29.2677 v -14.17322 h 29.2641 v 14.17322 h 42.5198 v -42.51975 h 14.1732 v -42.51966 h -14.1732 v -42.51969 h 14.1732 v -42.51968 h -14.1732 v -42.5197 h -42.5198 v 14.1733 h -29.2641 v -14.1733 h -29.2677 v 14.1733 h -29.2642 v -14.1733 h -29.2642 v 14.1733 h -29.2641 v -14.1733 h -29.2677 v 14.1733 h -29.2642 v -14.1733 h -29.2642 v 14.1733 h -29.2642 v -14.1733 h -29.2677 v 14.1733 h -29.2642 v -14.1733 h -29.2641 v 14.1733 h -29.2642 v -14.1733 h -29.2677 v 14.1733 h -29.2642 v -14.1733 h -29.2642 v 14.1733 h -29.2642 v -14.1733 h -29.2677 v 14.1733 h -29.2642 v -14.1733 h -29.2641 v 14.1733 h -29.2642 v -14.1733 h -29.2677 v 14.1733 h -29.26427 v -14.1733 h -29.2642 v 14.1733 h -29.2641 v -14.1733 H 86.842923 v 14.1733 H 57.578827 v -14.1733 h -42.5197 v 42.5197 H 0.88582683 v 42.51968 H 15.059127 v 42.51969 H 0.88582683 v 42.51966 H 15.059127 v 42.51975 h 42.5197 z"
       id="path5119"
       inkscape:connector-curvature="0" />
    <circle
       style="fill:none;fill-opacity:1;stroke:#000000;stroke-width:0.63605803;stroke-miterlimit:4;stroke-dasharray:none;stroke-dashoffset:0;stroke-opacity:1"
       id="path4483"
       cx="110.72835"
       cy="-968.20868"
       r="21.827641" />
    <circle
       r="21.827641"
       cy="-968.20868"
       cx="252.46063"
       id="circle4485"
       style="fill:none;fill-opacity:1;stroke:#000000;stroke-width:0.63605803;stroke-miterlimit:4;stroke-dasharray:none;stroke-dashoffset:0;stroke-opacity:1" />
  </g>
</svg>
