<?xml version="1.0" encoding="UTF-8" standalone="no"?>
<!-- Created with Inkscape (http://www.inkscape.org/) -->

<svg
   xmlns:dc="http://purl.org/dc/elements/1.1/"
   xmlns:cc="http://creativecommons.org/ns#"
   xmlns:rdf="http://www.w3.org/1999/02/22-rdf-syntax-ns#"
   xmlns:svg="http://www.w3.org/2000/svg"
   xmlns="http://www.w3.org/2000/svg"
   xmlns:sodipodi="http://sodipodi.sourceforge.net/DTD/sodipodi-0.dtd"
   xmlns:inkscape="http://www.inkscape.org/namespaces/inkscape"
   width="1220mm"
   height="610mm"
   viewBox="0 0 4322.8346 2161.4173"
   id="svg8254"
   version="1.1"
   inkscape:version="0.92.1 unknown"
   sodipodi:docname="acs4.svg">
  <defs
     id="defs8256" />
  <sodipodi:namedview
     id="base"
     pagecolor="#ffffff"
     bordercolor="#666666"
     borderopacity="1.0"
     inkscape:pageopacity="0.0"
     inkscape:pageshadow="2"
     inkscape:zoom="0.31161956"
     inkscape:cx="-615.04001"
     inkscape:cy="1233.9473"
     inkscape:document-units="mm"
     inkscape:current-layer="layer1"
     showgrid="false"
     inkscape:window-width="1600"
     inkscape:window-height="847"
     inkscape:window-x="0"
     inkscape:window-y="0"
     inkscape:window-maximized="1"
     inkscape:measure-start="1608.82,1174.28"
     inkscape:measure-end="1610.88,1059.21" />
  <metadata
     id="metadata8259">
    <rdf:RDF>
      <cc:Work
         rdf:about="">
        <dc:format>image/svg+xml</dc:format>
        <dc:type
           rdf:resource="http://purl.org/dc/dcmitype/StillImage" />
        <dc:title />
      </cc:Work>
    </rdf:RDF>
  </metadata>
  <g
     inkscape:label="Layer 1"
     inkscape:groupmode="layer"
     id="layer1"
     transform="translate(0,1109.0551)">
    <rect
       style="fill:none;fill-opacity:1;stroke:#0000ff;stroke-width:0.19952945;stroke-miterlimit:4;stroke-dasharray:none;stroke-dashoffset:0;stroke-opacity:1"
       id="rect5080"
       width="56.493385"
       height="47.635117"
       x="158.4328"
       y="-945.24463" />
    <rect
       style="fill:none;fill-opacity:1;stroke:#0000ff;stroke-width:0.21277156;stroke-miterlimit:4;stroke-dasharray:none;stroke-dashoffset:0;stroke-opacity:1"
       id="rect5082"
       width="70.653374"
       height="42.306915"
       x="711.19531"
       y="-947.00964"
       ry="21.153458" />
    <path
       style="fill:none;stroke:#000000;stroke-width:1.77165365"
       d="m 67.09287,-866.50582 h 29.2642 v 14.17322 h 29.2641 v -14.17322 h 29.2678 v 14.17322 h 29.2641 v -14.17322 h 29.2642 v 14.17322 h 29.26774 v -14.17322 h 29.2642 v 14.17322 h 29.2642 v -14.17322 h 29.2642 v 14.17322 h 29.2677 v -14.17322 h 29.2641 v 14.17322 h 29.2642 v -14.17322 h 29.2642 v 14.17322 h 29.2677 v -14.17322 h 29.2642 v 14.17322 h 29.2642 v -14.17322 h 29.2641 v 14.17322 h 29.2678 v -14.17322 h 29.2641 v 14.17322 h 29.2642 v -14.17322 h 29.2641 v 14.17322 h 29.2677 v -14.17322 h 29.2643 v 14.17322 h 29.2642 v -14.17322 h 29.2641 v 14.17322 h 29.2677 v -14.17322 h 29.2642 v 14.17322 h 42.5196 v -42.51975 h 14.1734 v -42.51966 h -14.1734 v -42.51965 h 14.1734 v -42.51974 h -14.1734 v -42.5197 h -42.5196 v 14.1733 h -29.2642 v -14.1733 h -29.2677 v 14.1733 h -29.2641 v -14.1733 h -29.2642 v 14.1733 h -29.2643 v -14.1733 h -29.2677 v 14.1733 h -29.2641 v -14.1733 h -29.2642 v 14.1733 h -29.2641 v -14.1733 h -29.2678 v 14.1733 h -29.2641 v -14.1733 h -29.2642 v 14.1733 h -29.2642 v -14.1733 h -29.2677 v 14.1733 h -29.2642 v -14.1733 h -29.2642 v 14.1733 h -29.2641 v -14.1733 h -29.2677 v 14.1733 h -29.2642 v -14.1733 h -29.2642 v 14.1733 h -29.2642 v -14.1733 h -29.26774 v 14.1733 h -29.2642 v -14.1733 h -29.2641 v 14.1733 h -29.2642 v -14.1733 h -29.2677 v 14.1733 h -29.2642 v -14.1733 h -42.5197 v 42.5197 h -14.1732 v 42.51974 h 14.1732 v 42.51965 h -14.1732 v 42.51966 h 14.1732 v 42.51975 h 42.5197 z"
       id="path5117"
       inkscape:connector-curvature="0" />
  </g>
</svg>
