<?xml version="1.0" encoding="UTF-8" standalone="no"?>
<!-- Created with Inkscape (http://www.inkscape.org/) -->

<svg
   xmlns:dc="http://purl.org/dc/elements/1.1/"
   xmlns:cc="http://creativecommons.org/ns#"
   xmlns:rdf="http://www.w3.org/1999/02/22-rdf-syntax-ns#"
   xmlns:svg="http://www.w3.org/2000/svg"
   xmlns="http://www.w3.org/2000/svg"
   xmlns:sodipodi="http://sodipodi.sourceforge.net/DTD/sodipodi-0.dtd"
   xmlns:inkscape="http://www.inkscape.org/namespaces/inkscape"
   width="1220mm"
   height="610mm"
   viewBox="0 0 4322.8346 2161.4173"
   id="svg8254"
   version="1.1"
   inkscape:version="0.92.1 unknown"
   sodipodi:docname="shortside.svg">
  <defs
     id="defs8256" />
  <sodipodi:namedview
     id="base"
     pagecolor="#ffffff"
     bordercolor="#666666"
     borderopacity="1.0"
     inkscape:pageopacity="0.0"
     inkscape:pageshadow="2"
     inkscape:zoom="0.88580757"
     inkscape:cx="220.47105"
     inkscape:cy="2169.4265"
     inkscape:document-units="mm"
     inkscape:current-layer="layer1"
     showgrid="false"
     inkscape:window-width="1600"
     inkscape:window-height="847"
     inkscape:window-x="0"
     inkscape:window-y="0"
     inkscape:window-maximized="1"
     inkscape:measure-start="1608.82,1174.28"
     inkscape:measure-end="1610.88,1059.21" />
  <metadata
     id="metadata8259">
    <rdf:RDF>
      <cc:Work
         rdf:about="">
        <dc:format>image/svg+xml</dc:format>
        <dc:type
           rdf:resource="http://purl.org/dc/dcmitype/StillImage" />
        <dc:title />
      </cc:Work>
    </rdf:RDF>
  </metadata>
  <g
     inkscape:label="Layer 1"
     inkscape:groupmode="layer"
     id="layer1"
     transform="translate(0,1109.0551)">
    <path
       style="fill:none;stroke:#000000;stroke-width:1.77165365"
       d="m 43.405516,-893.58259 h 30.195 v 14.17322 h 30.195354 v -14.17322 h 30.195 v 14.17322 h 30.195 v -14.17322 h 30.19536 v 14.17322 h 30.195 v -14.17322 h 30.19536 v 14.17322 h 30.195 v -14.17322 h 30.195 v 14.17322 h 30.19535 v -14.17322 h 30.19465 v 14.17322 h 30.19607 v -14.17322 h 30.19606 v 14.17322 h 30.19252 v -14.17322 h 30.19607 v 14.17322 h 30.19606 v -14.17322 h 30.19607 v 14.17322 h 30.19251 v -14.17322 h 30.19607 v 14.17322 h 30.19606 v -14.17322 h 30.19606 v 14.17322 h 30.19253 v -14.17322 h 30.19606 v 14.17322 h 42.51968 v -42.51975 h -14.17322 v -42.51966 h 14.17322 v -42.51962 h -14.17322 v -42.5198 h 14.17322 v -42.5196 h -42.51968 v 14.1732 h -30.19606 v -14.1732 h -30.19253 v 14.1732 h -30.19606 v -14.1732 h -30.19606 v 14.1732 h -30.19607 v -14.1732 h -30.19251 v 14.1732 h -30.19607 v -14.1732 h -30.19606 v 14.1732 h -30.19607 v -14.1732 h -30.19252 v 14.1732 h -30.19606 v -14.1732 h -30.19607 v 14.1732 h -30.19465 v -14.1732 h -30.195 v 14.1732 h -30.19535 v -14.1732 h -30.195 v 14.1732 h -30.19536 v -14.1732 h -30.195 v 14.1732 h -30.195 v -14.1732 h -30.19536 v 14.1732 h -30.195 v -14.1732 H 73.600516 v 14.1732 h -30.195 v -14.1732 H 0.88582683 v 42.5196 H 15.058986 v 42.5198 H 0.88582683 v 42.51962 H 15.059056 v 42.51966 H 0.88582683 v 42.51975 H 43.405516 Z"
       id="path5115"
       inkscape:connector-curvature="0" />
  </g>
</svg>
