<?xml version="1.0" encoding="UTF-8" standalone="no"?>
<!-- Created with Inkscape (http://www.inkscape.org/) -->

<svg
   xmlns:dc="http://purl.org/dc/elements/1.1/"
   xmlns:cc="http://creativecommons.org/ns#"
   xmlns:rdf="http://www.w3.org/1999/02/22-rdf-syntax-ns#"
   xmlns:svg="http://www.w3.org/2000/svg"
   xmlns="http://www.w3.org/2000/svg"
   xmlns:sodipodi="http://sodipodi.sourceforge.net/DTD/sodipodi-0.dtd"
   xmlns:inkscape="http://www.inkscape.org/namespaces/inkscape"
   width="1220mm"
   height="610mm"
   viewBox="0 0 4322.8346 2161.4173"
   id="svg8254"
   version="1.1"
   inkscape:version="0.92.1 unknown"
   sodipodi:docname="top.svg">
  <defs
     id="defs8256" />
  <sodipodi:namedview
     id="base"
     pagecolor="#ffffff"
     bordercolor="#666666"
     borderopacity="1.0"
     inkscape:pageopacity="0.0"
     inkscape:pageshadow="2"
     inkscape:zoom="5.1137571"
     inkscape:cx="795.59054"
     inkscape:cy="1360.6299"
     inkscape:document-units="mm"
     inkscape:current-layer="layer1"
     showgrid="false"
     inkscape:window-width="1600"
     inkscape:window-height="847"
     inkscape:window-x="0"
     inkscape:window-y="0"
     inkscape:window-maximized="1"
     inkscape:measure-start="37.9369,1360.25"
     inkscape:measure-end="36.7636,1323.29" />
  <metadata
     id="metadata8259">
    <rdf:RDF>
      <cc:Work
         rdf:about="">
        <dc:format>image/svg+xml</dc:format>
        <dc:type
           rdf:resource="http://purl.org/dc/dcmitype/StillImage" />
        <dc:title />
      </cc:Work>
    </rdf:RDF>
  </metadata>
  <g
     inkscape:label="Layer 1"
     inkscape:groupmode="layer"
     id="layer1"
     transform="translate(0,1109.0551)">
    <circle
       style="fill:none;fill-opacity:1;stroke:#ff000f;stroke-width:0.55824047;stroke-miterlimit:4;stroke-dasharray:none;stroke-dashoffset:0;stroke-opacity:1"
       id="path5064"
       cx="390.64963"
       cy="-351.57874"
       r="20.980722" />
    <circle
       cy="-351.57874"
       cx="481.00397"
       id="ellipse5066"
       style="fill:none;fill-opacity:1;stroke:#ff000f;stroke-width:0.55824047;stroke-miterlimit:4;stroke-dasharray:none;stroke-dashoffset:0;stroke-opacity:1"
       r="20.980722" />
    <circle
       style="fill:none;fill-opacity:1;stroke:#ff000f;stroke-width:0.30238023;stroke-miterlimit:4;stroke-dasharray:none;stroke-dashoffset:0;stroke-opacity:1"
       id="ellipse5068"
       cx="302.06693"
       cy="-351.57874"
       r="11.364558" />
    <path
       style="fill:none;stroke:#000000;stroke-width:1.77165365"
       d="m 73.600517,-202.85429 h 30.195363 v 14.17323 h 30.19499 v -14.17323 h 30.195 v 14.17323 h 30.19536 v -14.17323 h 30.195 v 14.17323 h 30.19536 v -14.17323 h 30.195 v 14.17323 h 30.195 v -14.17323 h 30.19536 v 14.17323 h 30.19465 v -14.17323 h 30.19607 v 14.17323 h 30.19606 v -14.17323 h 30.19252 v 14.17323 h 30.19607 v -14.17323 h 30.19606 v 14.17323 h 30.19607 v -14.17323 h 30.19251 v 14.17323 h 30.19607 v -14.17323 h 30.19606 v 14.17323 h 30.19606 v -14.17323 h 30.19253 v 14.17323 h 30.19606 v -14.17323 h 28.34646 v -42.51968 h 14.17322 v -29.26489 H 766.2402 v -29.26524 h 14.17322 v -29.26595 H 766.2402 v -29.26417 h 14.17322 v -29.26417 H 766.2402 v -29.26772 h 14.17322 v -29.26417 H 766.2402 v -29.26418 h 14.17322 v -29.26417 H 766.2402 v -29.26771 h 14.17322 v -29.26418 H 766.2402 v -29.26418 h 14.17322 v -29.26417 H 766.2402 v -29.26772 h 14.17322 v -29.26418 H 766.2402 v -29.26416 h 14.17322 v -29.26418 H 766.2402 v -29.26772 h 14.17322 v -29.26418 H 766.2402 v -29.26417 h 14.17322 v -29.26418 H 766.2402 v -29.26771 h 14.17322 v -29.26417 H 766.2402 v -29.26418 h 14.17322 V -976.9996 H 766.2402 v -29.2677 h 14.17322 v -29.2642 H 766.2402 v -42.5196 h -28.34646 v -14.1733 h -30.19606 v 14.1733 h -30.19253 v -14.1733 h -30.19606 v 14.1733 h -30.19606 v -14.1733 h -30.19607 v 14.1733 h -30.19251 v -14.1733 h -30.19607 v 14.1733 h -30.19606 v -14.1733 h -30.19607 v 14.1733 h -30.19252 v -14.1733 h -30.19606 v 14.1733 H 375.5516 v -14.1733 h -30.19465 v 14.1733 h -30.19501 v -14.1733 h -30.19535 v 14.1733 h -30.195 v -14.1733 h -30.19536 v 14.1733 h -30.195 v -14.1733 h -30.195 v 14.1733 h -30.19536 v -14.1733 h -30.19499 v 14.1733 H 73.600517 v -14.1733 h -30.195 v 14.1733 h -28.34653 v 42.5196 H 0.88582683 v 29.2642 H 15.058987 v 29.2677 H 0.88582683 v 29.26418 H 15.058987 v 29.26418 H 0.88582683 v 29.26417 H 15.058987 v 29.26771 H 0.88582683 v 29.26418 H 15.058987 v 29.26417 H 0.88582683 v 29.26418 H 15.058987 v 29.26772 H 0.88582683 v 29.26418 H 15.058987 v 29.26416 H 0.88582683 v 29.26418 H 15.058987 l 7e-5,29.26772 H 0.88582683 v 29.26417 H 15.059057 v 29.26418 H 0.88582683 v 29.26418 H 15.059057 v 29.26771 H 0.88582683 v 29.26417 H 15.059057 v 29.26418 H 0.88582683 v 29.26417 H 15.059057 v 29.26772 H 0.88582683 v 29.26417 H 15.059057 v 29.26417 H 0.88582683 v 29.26595 H 15.059057 v 29.26489 H 0.88582683 v 29.26524 H 15.059057 v 42.51968 h 28.34646 v 14.17323 h 30.195 z"
       id="path5121"
       inkscape:connector-curvature="0" />
    <circle
       style="fill:none;fill-opacity:1;stroke:#ff000f;stroke-width:0.21367873;stroke-miterlimit:4;stroke-dasharray:none;stroke-dashoffset:0;stroke-opacity:1"
       id="path4486"
       cx="35.433071"
       cy="-1057.6771"
       r="5.2081213" />
    <circle
       r="5.2081213"
       cy="-1057.6771"
       cx="745.86615"
       id="circle4488"
       style="fill:none;fill-opacity:1;stroke:#ff000f;stroke-width:0.21367873;stroke-miterlimit:4;stroke-dasharray:none;stroke-dashoffset:0;stroke-opacity:1" />
    <circle
       style="fill:none;fill-opacity:1;stroke:#ff000f;stroke-width:0.21367873;stroke-miterlimit:4;stroke-dasharray:none;stroke-dashoffset:0;stroke-opacity:1"
       id="circle4490"
       cx="35.433071"
       cy="-223.2283"
       r="5.2081213" />
    <circle
       r="5.2081213"
       cy="-223.2283"
       cx="745.86615"
       id="circle4492"
       style="fill:none;fill-opacity:1;stroke:#ff000f;stroke-width:0.21367873;stroke-miterlimit:4;stroke-dasharray:none;stroke-dashoffset:0;stroke-opacity:1" />
  </g>
</svg>
